<svg xmlns="http://www.w3.org/2000/svg" style="margin:auto;background:#fff;z-index:1;position:relative" width="500" height="350" preserveAspectRatio="xMidYMid" display="block"><g><defs><linearGradient id="a" x1="270" x2="500" y1="0" y2="0" gradientUnits="userSpaceOnUse"><stop stop-color="#1d3f72" offset="0"/><stop stop-color="#34ffef" offset="1"/></linearGradient><mask id="b"><path d="M800-.5H212.849a7 7 0 0 1 0 15H800" fill="#fff" transform="translate(7.106)"><animateTransform attributeName="transform" type="translate" dur="10s" repeatCount="indefinite" keyTimes="0;0.5;1" calcMode="spline" keySplines="0.5 0 0.5 1;0.5 0 0.5 1" values="24.846997841324928;0;24.846997841324928" begin="0s"/></path><path d="M524.827-.5h10.827a7 7 0 0 1 0 15h-10.827a7 7 0 0 1 0-15" transform="translate(-334.375)"><animateTransform attributeName="transform" type="translate" dur="3.3333333333333335s" repeatCount="indefinite" keyTimes="0;1" values="0;-363.44419897823553" begin="0s"/><animate attributeName="opacity" dur="3.3333333333333335s" repeatCount="indefinite" keyTimes="0;0.3;1" values="1;1;0" begin="0s"/></path><path d="M800 13.5H203.26a7 7 0 0 0 0 15H800" fill="#fff" transform="translate(-8.2)"><animateTransform attributeName="transform" type="translate" dur="3.3333333333333335s" repeatCount="indefinite" keyTimes="0;0.5;1" calcMode="spline" keySplines="0.5 0 0.5 1;0.5 0 0.5 1" values="-21.47207560274157;0;-21.47207560274157" begin="-1.2s"/></path><path d="M335.818 13.5h15.91a7 7 0 0 1 0 15h-15.91a7 7 0 0 1 0-15" fill="#fff"><animateTransform attributeName="transform" type="translate" dur="3.3333333333333335s" repeatCount="indefinite" keyTimes="0;1" values="0;0" begin="-1.2s"/><animate attributeName="opacity" dur="3.3333333333333335s" repeatCount="indefinite" keyTimes="0;0.3;1" values="1;1;0" begin="-1.2s"/></path><path d="M800 27.5H233.862a7 7 0 0 1 0 15H800" fill="#fff" transform="translate(1.795)"><animateTransform attributeName="transform" type="translate" dur="3.3333333333333335s" repeatCount="indefinite" keyTimes="0;0.5;1" calcMode="spline" keySplines="0.5 0 0.5 1;0.5 0 0.5 1" values="13.11815380053905;0;13.11815380053905" begin="-2.4s"/></path><path d="M540.068 27.5h26.068a7 7 0 0 1 0 15h-26.068a7 7 0 0 1 0-15" transform="translate(-244.132)"><animateTransform attributeName="transform" type="translate" dur="10s" repeatCount="indefinite" keyTimes="0;1" values="0;-446.5775537503034" begin="-2.4s"/><animate attributeName="opacity" dur="10s" repeatCount="indefinite" keyTimes="0;0.3;1" values="1;1;0" begin="-2.4s"/></path><path d="M800 41.5H206.441a7 7 0 0 0 0 15H800" fill="#fff" transform="translate(-4.396)"><animateTransform attributeName="transform" type="translate" dur="5s" repeatCount="indefinite" keyTimes="0;0.5;1" calcMode="spline" keySplines="0.5 0 0.5 1;0.5 0 0.5 1" values="-21.590375713984912;0;-21.590375713984912" begin="-3.5999999999999996s"/></path><path d="M306.486 41.5h29.35a7 7 0 0 1 0 15h-29.35a7 7 0 0 1 0-15" fill="#fff"><animateTransform attributeName="transform" type="translate" dur="10s" repeatCount="indefinite" keyTimes="0;1" values="0;0" begin="-3.5999999999999996s"/><animate attributeName="opacity" dur="10s" repeatCount="indefinite" keyTimes="0;0.3;1" values="1;1;0" begin="-3.5999999999999996s"/></path><path d="M800 55.5H210.414a7 7 0 0 1 0 15H800" fill="#fff" transform="translate(.678)"><animateTransform attributeName="transform" type="translate" dur="5s" repeatCount="indefinite" keyTimes="0;0.5;1" calcMode="spline" keySplines="0.5 0 0.5 1;0.5 0 0.5 1" values="20.590325063293236;0;20.590325063293236" begin="-4.8s"/></path><path d="M530.74 55.5h16.741a7 7 0 0 1 0 15h-16.74a7 7 0 0 1 0-15" transform="translate(-133.687)"><animateTransform attributeName="transform" type="translate" dur="3.3333333333333335s" repeatCount="indefinite" keyTimes="0;1" values="0;-371.33344744748814" begin="-4.8s"/><animate attributeName="opacity" dur="3.3333333333333335s" repeatCount="indefinite" keyTimes="0;0.3;1" values="1;1;0" begin="-4.8s"/></path><path d="M800 69.5H192.848a7 7 0 0 0 0 15H800" fill="#fff" transform="translate(-18.983)"><animateTransform attributeName="transform" type="translate" dur="10s" repeatCount="indefinite" keyTimes="0;0.5;1" calcMode="spline" keySplines="0.5 0 0.5 1;0.5 0 0.5 1" values="-20.096648218689708;0;-20.096648218689708" begin="-6.000000000000001s"/></path><path d="M304.09 69.5h16.078a7 7 0 0 1 0 15h-16.079a7 7 0 0 1 0-15" fill="#fff"><animateTransform attributeName="transform" type="translate" dur="10s" repeatCount="indefinite" keyTimes="0;1" values="0;0" begin="-6.000000000000001s"/><animate attributeName="opacity" dur="10s" repeatCount="indefinite" keyTimes="0;0.3;1" values="1;1;0" begin="-6.000000000000001s"/></path><path d="M800 83.5H208.225a7 7 0 0 1 0 15H800" fill="#fff" transform="translate(23.998)"><animateTransform attributeName="transform" type="translate" dur="3.3333333333333335s" repeatCount="indefinite" keyTimes="0;0.5;1" calcMode="spline" keySplines="0.5 0 0.5 1;0.5 0 0.5 1" values="24.98990939916097;0;24.98990939916097" begin="-7.199999999999999s"/></path><path d="M524.722 83.5h10.721a7 7 0 0 1 0 15h-10.721a7 7 0 0 1 0-15" transform="translate(-37.315)"><animateTransform attributeName="transform" type="translate" dur="3.3333333333333335s" repeatCount="indefinite" keyTimes="0;1" values="0;-466.32568090829295" begin="-7.199999999999999s"/><animate attributeName="opacity" dur="3.3333333333333335s" repeatCount="indefinite" keyTimes="0;0.3;1" values="1;1;0" begin="-7.199999999999999s"/></path><path d="M800 97.5H208.698a7 7 0 0 0 0 15H800" fill="#fff" transform="translate(-21.406)"><animateTransform attributeName="transform" type="translate" dur="10s" repeatCount="indefinite" keyTimes="0;0.5;1" calcMode="spline" keySplines="0.5 0 0.5 1;0.5 0 0.5 1" values="-25.244861238619286;0;-25.244861238619286" begin="-8.4s"/></path><path d="M286.365 97.5h18.45a7 7 0 0 1 0 15h-18.45a7 7 0 0 1 0-15" fill="#fff"><animateTransform attributeName="transform" type="translate" dur="3.3333333333333335s" repeatCount="indefinite" keyTimes="0;1" values="0;0" begin="-8.4s"/><animate attributeName="opacity" dur="3.3333333333333335s" repeatCount="indefinite" keyTimes="0;0.3;1" values="1;1;0" begin="-8.4s"/></path><path d="M800 111.5H231.733a7 7 0 0 1 0 15H800" fill="#fff" transform="translate(9.871)"><animateTransform attributeName="transform" type="translate" dur="10s" repeatCount="indefinite" keyTimes="0;0.5;1" calcMode="spline" keySplines="0.5 0 0.5 1;0.5 0 0.5 1" values="22.762090585693613;0;22.762090585693613" begin="-9.6s"/></path><path d="M547.242 111.5h33.242a7 7 0 0 1 0 15h-33.242a7 7 0 0 1 0-15" transform="translate(-424.689)"><animateTransform attributeName="transform" type="translate" dur="3.3333333333333335s" repeatCount="indefinite" keyTimes="0;1" values="0;-530.8491862229416" begin="-9.6s"/><animate attributeName="opacity" dur="3.3333333333333335s" repeatCount="indefinite" keyTimes="0;0.3;1" values="1;1;0" begin="-9.6s"/></path><path d="M800 125.5H235.762a7 7 0 0 0 0 15H800" fill="#fff" transform="translate(-2.11)"><animateTransform attributeName="transform" type="translate" dur="10s" repeatCount="indefinite" keyTimes="0;0.5;1" calcMode="spline" keySplines="0.5 0 0.5 1;0.5 0 0.5 1" values="-24.799767754778202;0;-24.799767754778202" begin="-10.8s"/></path><path d="M272.007 125.5h18.32a7 7 0 0 1 0 15h-18.32a7 7 0 0 1 0-15" fill="#fff"><animateTransform attributeName="transform" type="translate" dur="3.3333333333333335s" repeatCount="indefinite" keyTimes="0;1" values="0;0" begin="-10.8s"/><animate attributeName="opacity" dur="3.3333333333333335s" repeatCount="indefinite" keyTimes="0;0.3;1" values="1;1;0" begin="-10.8s"/></path><path d="M800 139.5H241.81a7 7 0 0 1 0 15H800" fill="#fff" transform="translate(.04)"><animateTransform attributeName="transform" type="translate" dur="3.3333333333333335s" repeatCount="indefinite" keyTimes="0;0.5;1" calcMode="spline" keySplines="0.5 0 0.5 1;0.5 0 0.5 1" values="18.11344896473918;0;18.11344896473918" begin="-12.000000000000002s"/></path><path d="M553.467 139.5h39.468a7 7 0 0 1 0 15h-39.468a7 7 0 0 1 0-15" transform="translate(-285.316)"><animateTransform attributeName="transform" type="translate" dur="10s" repeatCount="indefinite" keyTimes="0;1" values="0;-563.1163617359413" begin="-12.000000000000002s"/><animate attributeName="opacity" dur="10s" repeatCount="indefinite" keyTimes="0;0.3;1" values="1;1;0" begin="-12.000000000000002s"/></path><path d="M800 153.5H229.492a7 7 0 0 0 0 15H800" fill="#fff" transform="translate(-2.37)"><animateTransform attributeName="transform" type="translate" dur="10s" repeatCount="indefinite" keyTimes="0;0.5;1" calcMode="spline" keySplines="0.5 0 0.5 1;0.5 0 0.5 1" values="-21.723341438130845;0;-21.723341438130845" begin="-13.200000000000001s"/></path><path d="M302.42 153.5h11.814a7 7 0 0 1 0 15H302.42a7 7 0 0 1 0-15" fill="#fff"><animateTransform attributeName="transform" type="translate" dur="3.3333333333333335s" repeatCount="indefinite" keyTimes="0;1" values="0;0" begin="-13.200000000000001s"/><animate attributeName="opacity" dur="3.3333333333333335s" repeatCount="indefinite" keyTimes="0;0.3;1" values="1;1;0" begin="-13.200000000000001s"/></path><path d="M800 167.5H247.336a7 7 0 0 1 0 15H800" fill="#fff" transform="translate(.006)"><animateTransform attributeName="transform" type="translate" dur="5s" repeatCount="indefinite" keyTimes="0;0.5;1" calcMode="spline" keySplines="0.5 0 0.5 1;0.5 0 0.5 1" values="23.18561510662214;0;23.18561510662214" begin="-14.399999999999999s"/></path><path d="M548.47 167.5h34.468a7 7 0 0 1 0 15H548.47a7 7 0 0 1 0-15" transform="translate(-425.623)"><animateTransform attributeName="transform" type="translate" dur="10s" repeatCount="indefinite" keyTimes="0;1" values="0;-570.0256540341372" begin="-14.399999999999999s"/><animate attributeName="opacity" dur="10s" repeatCount="indefinite" keyTimes="0;0.3;1" values="1;1;0" begin="-14.399999999999999s"/></path><path d="M800 181.5H254.856a7 7 0 0 0 0 15H800" fill="#fff" transform="translate(-19.91)"><animateTransform attributeName="transform" type="translate" dur="10s" repeatCount="indefinite" keyTimes="0;0.5;1" calcMode="spline" keySplines="0.5 0 0.5 1;0.5 0 0.5 1" values="-22.689302374258478;0;-22.689302374258478" begin="-15.600000000000001s"/></path><path d="M306.664 181.5h15.909a7 7 0 0 1 0 15h-15.91a7 7 0 0 1 0-15" fill="#fff"><animateTransform attributeName="transform" type="translate" dur="5s" repeatCount="indefinite" keyTimes="0;1" values="0;0" begin="-15.600000000000001s"/><animate attributeName="opacity" dur="5s" repeatCount="indefinite" keyTimes="0;0.3;1" values="1;1;0" begin="-15.600000000000001s"/></path><path d="M800 195.5H270.509a7 7 0 0 1 0 15H800" fill="#fff" transform="translate(25.373)"><animateTransform attributeName="transform" type="translate" dur="3.3333333333333335s" repeatCount="indefinite" keyTimes="0;0.5;1" calcMode="spline" keySplines="0.5 0 0.5 1;0.5 0 0.5 1" values="25.608258790518953;0;25.608258790518953" begin="-16.8s"/></path><path d="M527.232 195.5h13.233a7 7 0 0 1 0 15h-13.233a7 7 0 0 1 0-15" transform="translate(-510.459)"><animateTransform attributeName="transform" type="translate" dur="5s" repeatCount="indefinite" keyTimes="0;1" values="0;-524.4375227982279" begin="-16.8s"/><animate attributeName="opacity" dur="5s" repeatCount="indefinite" keyTimes="0;0.3;1" values="1;1;0" begin="-16.8s"/></path><path d="M800 209.5H229.108a7 7 0 0 0 0 15H800" fill="#fff" transform="translate(-13.906)"><animateTransform attributeName="transform" type="translate" dur="10s" repeatCount="indefinite" keyTimes="0;0.5;1" calcMode="spline" keySplines="0.5 0 0.5 1;0.5 0 0.5 1" values="-15.023406967328476;0;-15.023406967328476" begin="-18s"/></path><path d="M360.16 209.5h18.436a7 7 0 0 1 0 15H360.16a7 7 0 0 1 0-15" fill="#fff"><animateTransform attributeName="transform" type="translate" dur="10s" repeatCount="indefinite" keyTimes="0;1" values="0;0" begin="-18s"/><animate attributeName="opacity" dur="10s" repeatCount="indefinite" keyTimes="0;0.3;1" values="1;1;0" begin="-18s"/></path><path d="M800 223.5H281.356a7 7 0 0 1 0 15H800" fill="#fff" transform="translate(5.309)"><animateTransform attributeName="transform" type="translate" dur="3.3333333333333335s" repeatCount="indefinite" keyTimes="0;0.5;1" calcMode="spline" keySplines="0.5 0 0.5 1;0.5 0 0.5 1" values="21.847297272420903;0;21.847297272420903" begin="-19.2s"/></path><path d="M548.205 223.5h34.204a7 7 0 0 1 0 15h-34.204a7 7 0 0 1 0-15" transform="translate(-216.462)"><animateTransform attributeName="transform" type="translate" dur="5s" repeatCount="indefinite" keyTimes="0;1" values="0;-477.476947479807" begin="-19.2s"/><animate attributeName="opacity" dur="5s" repeatCount="indefinite" keyTimes="0;0.3;1" values="1;1;0" begin="-19.2s"/></path><path d="M800 237.5H285.386a7 7 0 0 0 0 15H800" fill="#fff" transform="translate(-6.157)"><animateTransform attributeName="transform" type="translate" dur="5s" repeatCount="indefinite" keyTimes="0;0.5;1" calcMode="spline" keySplines="0.5 0 0.5 1;0.5 0 0.5 1" values="-21.525435363967386;0;-21.525435363967386" begin="-20.4s"/></path><path d="M322.904 237.5h19.532a7 7 0 0 1 0 15h-19.532a7 7 0 0 1 0-15" fill="#fff"><animateTransform attributeName="transform" type="translate" dur="5s" repeatCount="indefinite" keyTimes="0;1" values="0;0" begin="-20.4s"/><animate attributeName="opacity" dur="5s" repeatCount="indefinite" keyTimes="0;0.3;1" values="1;1;0" begin="-20.4s"/></path><path d="M800 251.5H287.71a7 7 0 0 1 0 15H800" fill="#fff" transform="translate(.096)"><animateTransform attributeName="transform" type="translate" dur="10s" repeatCount="indefinite" keyTimes="0;0.5;1" calcMode="spline" keySplines="0.5 0 0.5 1;0.5 0 0.5 1" values="15.18407326442935;0;15.18407326442935" begin="-21.6s"/></path><path d="M552.2 251.5h38.2a7 7 0 0 1 0 15h-38.2a7 7 0 0 1 0-15" transform="translate(-322.589)"><animateTransform attributeName="transform" type="translate" dur="5s" repeatCount="indefinite" keyTimes="0;1" values="0;-345.62634618811114" begin="-21.6s"/><animate attributeName="opacity" dur="5s" repeatCount="indefinite" keyTimes="0;0.3;1" values="1;1;0" begin="-21.6s"/></path><path d="M800 265.5H274.9a7 7 0 0 0 0 15H800" fill="#fff" transform="translate(-19.74)"><animateTransform attributeName="transform" type="translate" dur="5s" repeatCount="indefinite" keyTimes="0;0.5;1" calcMode="spline" keySplines="0.5 0 0.5 1;0.5 0 0.5 1" values="-25.400757881222354;0;-25.400757881222354" begin="-22.800000000000004s"/></path><path d="M338.982 265.5h25.532a7 7 0 0 1 0 15h-25.532a7 7 0 0 1 0-15" fill="#fff"><animateTransform attributeName="transform" type="translate" dur="5s" repeatCount="indefinite" keyTimes="0;1" values="0;0" begin="-22.800000000000004s"/><animate attributeName="opacity" dur="5s" repeatCount="indefinite" keyTimes="0;0.3;1" values="1;1;0" begin="-22.800000000000004s"/></path><path d="M800 279.5H273.49a7 7 0 0 1 0 15H800" fill="#fff" transform="translate(5.507)"><animateTransform attributeName="transform" type="translate" dur="10s" repeatCount="indefinite" keyTimes="0;0.5;1" calcMode="spline" keySplines="0.5 0 0.5 1;0.5 0 0.5 1" values="16.561191521245874;0;16.561191521245874" begin="-24.000000000000004s"/></path><path d="M547.258 279.5h33.259a7 7 0 0 1 0 15h-33.259a7 7 0 0 1 0-15" transform="translate(-64.262)"><animateTransform attributeName="transform" type="translate" dur="3.3333333333333335s" repeatCount="indefinite" keyTimes="0;1" values="0;-535.4373203966471" begin="-24.000000000000004s"/><animate attributeName="opacity" dur="3.3333333333333335s" repeatCount="indefinite" keyTimes="0;0.3;1" values="1;1;0" begin="-24.000000000000004s"/></path><path d="M800 293.5H260.822a7 7 0 0 0 0 15H800" fill="#fff" transform="translate(-17.113)"><animateTransform attributeName="transform" type="translate" dur="10s" repeatCount="indefinite" keyTimes="0;0.5;1" calcMode="spline" keySplines="0.5 0 0.5 1;0.5 0 0.5 1" values="-22.01866407157471;0;-22.01866407157471" begin="-25.2s"/></path><path d="M343.838 293.5h28.416a7 7 0 0 1 0 15h-28.416a7 7 0 0 1 0-15" fill="#fff"><animateTransform attributeName="transform" type="translate" dur="10s" repeatCount="indefinite" keyTimes="0;1" values="0;0" begin="-25.2s"/><animate attributeName="opacity" dur="10s" repeatCount="indefinite" keyTimes="0;0.3;1" values="1;1;0" begin="-25.2s"/></path><path d="M800 307.5H256.028a7 7 0 0 1 0 15H800" fill="#fff" transform="translate(19.737)"><animateTransform attributeName="transform" type="translate" dur="3.3333333333333335s" repeatCount="indefinite" keyTimes="0;0.5;1" calcMode="spline" keySplines="0.5 0 0.5 1;0.5 0 0.5 1" values="24.229266696299554;0;24.229266696299554" begin="-26.400000000000002s"/></path><path d="M528.891 307.5h14.891a7 7 0 0 1 0 15h-14.89a7 7 0 0 1 0-15" transform="translate(-369.015)"><animateTransform attributeName="transform" type="translate" dur="10s" repeatCount="indefinite" keyTimes="0;1" values="0;-389.8016531548801" begin="-26.400000000000002s"/><animate attributeName="opacity" dur="10s" repeatCount="indefinite" keyTimes="0;0.3;1" values="1;1;0" begin="-26.400000000000002s"/></path><path d="M800 321.5H244.515a7 7 0 0 0 0 15H800" fill="#fff" transform="translate(-16.26)"><animateTransform attributeName="transform" type="translate" dur="10s" repeatCount="indefinite" keyTimes="0;0.5;1" calcMode="spline" keySplines="0.5 0 0.5 1;0.5 0 0.5 1" values="-16.708897349143157;0;-16.708897349143157" begin="-27.6s"/></path><path d="M338.39 321.5h13.316a7 7 0 0 1 0 15h-13.315a7 7 0 0 1 0-15" fill="#fff"><animateTransform attributeName="transform" type="translate" dur="5s" repeatCount="indefinite" keyTimes="0;1" values="0;0" begin="-27.6s"/><animate attributeName="opacity" dur="5s" repeatCount="indefinite" keyTimes="0;0.3;1" values="1;1;0" begin="-27.6s"/></path><path d="M800 335.5H260.665a7 7 0 0 1 0 15H800" fill="#fff" transform="translate(.44)"><animateTransform attributeName="transform" type="translate" dur="3.3333333333333335s" repeatCount="indefinite" keyTimes="0;0.5;1" calcMode="spline" keySplines="0.5 0 0.5 1;0.5 0 0.5 1" values="20.515837668701405;0;20.515837668701405" begin="-28.799999999999997s"/></path><path d="M536.101 335.5h22.102a7 7 0 0 1 0 15H536.1a7 7 0 0 1 0-15" transform="translate(-66.63)"><animateTransform attributeName="transform" type="translate" dur="10s" repeatCount="indefinite" keyTimes="0;1" values="0;-356.93243259062194" begin="-28.799999999999997s"/><animate attributeName="opacity" dur="10s" repeatCount="indefinite" keyTimes="0;0.3;1" values="1;1;0" begin="-28.799999999999997s"/></path></mask></defs><path fill="url(#a)" mask="url(#b)" d="M0 0h500v350H0z"/></g></svg>